<svg width="16" height="17" viewBox="0 0 16 17" fill="none" xmlns="http://www.w3.org/2000/svg">
<path d="M2.66659 7.83333V13.1667H5.33325V7.83333H2.66659ZM6.66659 3.83333V13.1667H9.33325V3.83333H6.66659ZM10.6666 9.16667V13.1667H13.3333V9.16667H10.6666ZM13.3333 14.5H2.66659C2.29992 14.5 1.98592 14.3693 1.72459 14.108C1.46325 13.8467 1.33281 13.5329 1.33325 13.1667V7.83333C1.33325 7.46667 1.46392 7.15267 1.72525 6.89133C1.98659 6.63 2.30036 6.49956 2.66659 6.5H5.33325V3.83333C5.33325 3.46667 5.46392 3.15267 5.72525 2.89133C5.98659 2.63 6.30036 2.49956 6.66659 2.5H9.33325C9.69992 2.5 10.0139 2.63067 10.2753 2.892C10.5366 3.15333 10.667 3.46711 10.6666 3.83333V7.83333H13.3333C13.6999 7.83333 14.0139 7.964 14.2753 8.22534C14.5366 8.48667 14.667 8.80045 14.6666 9.16667V13.1667C14.6666 13.5333 14.5359 13.8473 14.2746 14.1087C14.0133 14.37 13.6995 14.5004 13.3333 14.5Z" fill="#7B7B7B"/>
</svg>
