<svg width="17" height="16" viewBox="0 0 17 16" fill="none" xmlns="http://www.w3.org/2000/svg">
<path d="M4.24999 1.99992C4.24999 2.18881 4.18599 2.34725 4.05799 2.47525C3.92999 2.60325 3.77177 2.66703 3.58332 2.66659H2.91665C2.72777 2.66659 2.56932 2.60259 2.44132 2.47459C2.31332 2.34659 2.24954 2.18837 2.24999 1.99992C2.24999 1.81103 2.31399 1.65259 2.44199 1.52459C2.56999 1.39659 2.72821 1.33281 2.91665 1.33325H3.58332C3.77221 1.33325 3.93065 1.39725 4.05865 1.52525C4.18665 1.65325 4.25043 1.81148 4.24999 1.99992ZM3.21665 14.6666H7.58332V11.9999H2.11665L1.89999 13.0666C1.8111 13.4888 1.90288 13.861 2.17532 14.1833C2.44777 14.5055 2.79488 14.6666 3.21665 14.6666ZM5.26665 4.33325C5.39999 4.46659 5.46665 4.62503 5.46665 4.80859C5.46665 4.99214 5.39999 5.15037 5.26665 5.28325L4.79999 5.74992C4.67777 5.87214 4.52488 5.93325 4.34132 5.93325C4.15777 5.93325 3.99954 5.87214 3.86665 5.74992C3.73332 5.61659 3.66665 5.45814 3.66665 5.27459C3.66665 5.09103 3.73332 4.93281 3.86665 4.79992L4.33332 4.33325C4.45554 4.21103 4.60843 4.14992 4.79199 4.14992C4.97554 4.14992 5.13377 4.21103 5.26665 4.33325ZM2.38332 10.6666H7.58332V7.99992H4.01665C3.69443 7.99992 3.40821 8.09992 3.15799 8.29992C2.90777 8.49992 2.7551 8.75548 2.69999 9.06659L2.38332 10.6666ZM8.24999 4.66659C7.32777 4.66659 6.54154 4.34148 5.89132 3.69125C5.2411 3.04103 4.91621 2.25503 4.91665 1.33325H11.5833C11.5833 2.25548 11.2582 3.0417 10.608 3.69192C9.95777 4.34214 9.17177 4.66703 8.24999 4.66659ZM8.24999 5.33325C8.43888 5.33325 8.59732 5.39725 8.72532 5.52525C8.85332 5.65325 8.9171 5.81148 8.91665 5.99992V6.66659C8.91665 6.85548 8.85265 7.01392 8.72465 7.14192C8.59665 7.26992 8.43843 7.3337 8.24999 7.33325C8.0611 7.33325 7.90265 7.26925 7.77465 7.14125C7.64665 7.01325 7.58288 6.85503 7.58332 6.66659V5.99992C7.58332 5.81103 7.64732 5.65259 7.77532 5.52459C7.90332 5.39659 8.06154 5.33281 8.24999 5.33325ZM8.91665 14.6666H13.2833C13.7055 14.6666 14.0529 14.5055 14.3253 14.1833C14.5978 13.861 14.6893 13.4888 14.6 13.0666L14.3833 11.9999H8.91665V14.6666ZM8.91665 10.6666H14.1167L13.8 9.06659C13.7444 8.75548 13.5915 8.49992 13.3413 8.29992C13.0911 8.09992 12.8051 7.99992 12.4833 7.99992H8.91665V10.6666ZM11.2333 4.33325C11.3555 4.21103 11.5111 4.14992 11.7 4.14992C11.8889 4.14992 12.0444 4.21103 12.1667 4.33325L12.6333 4.79992C12.7667 4.93325 12.8362 5.08881 12.842 5.26659C12.8478 5.44437 12.7838 5.59992 12.65 5.73325C12.5167 5.86659 12.3582 5.93325 12.1747 5.93325C11.9911 5.93325 11.8329 5.86659 11.7 5.73325L11.2333 5.26659C11.1111 5.13325 11.0471 4.9777 11.0413 4.79992C11.0355 4.62214 11.0995 4.46659 11.2333 4.33325ZM14.25 1.99992C14.25 2.18881 14.186 2.34725 14.058 2.47525C13.93 2.60325 13.7718 2.66703 13.5833 2.66659H12.9167C12.7278 2.66659 12.5693 2.60259 12.4413 2.47459C12.3133 2.34659 12.2495 2.18837 12.25 1.99992C12.25 1.81103 12.314 1.65259 12.442 1.52459C12.57 1.39659 12.7282 1.33281 12.9167 1.33325H13.5833C13.7722 1.33325 13.9307 1.39725 14.0587 1.52525C14.1867 1.65325 14.2504 1.81148 14.25 1.99992Z" fill="#44A5FF"/>
</svg>
