<svg width="16" height="16" viewBox="0 0 16 16" fill="none" xmlns="http://www.w3.org/2000/svg">
<path d="M7.33332 3.99998H9.33332L11.5267 1.79998C11.5886 1.7375 11.6624 1.6879 11.7436 1.65405C11.8248 1.62021 11.912 1.60278 12 1.60278C12.088 1.60278 12.1751 1.62021 12.2564 1.65405C12.3376 1.6879 12.4113 1.7375 12.4733 1.79998L14.1933 3.52665C14.3175 3.65156 14.3872 3.82052 14.3872 3.99665C14.3872 4.17277 14.3175 4.34174 14.1933 4.46665L12.6667 5.99998H7.33332V7.33332C7.33332 7.51013 7.26308 7.6797 7.13806 7.80472C7.01303 7.92974 6.84347 7.99998 6.66665 7.99998C6.48984 7.99998 6.32027 7.92974 6.19525 7.80472C6.07023 7.6797 5.99999 7.51013 5.99999 7.33332V5.33332C5.99999 4.97969 6.14046 4.64055 6.39051 4.39051C6.64056 4.14046 6.9797 3.99998 7.33332 3.99998ZM3.33332 7.33332V9.99998L1.80665 11.5266C1.68249 11.6516 1.61279 11.8205 1.61279 11.9966C1.61279 12.1728 1.68249 12.3417 1.80665 12.4667L3.52665 14.1933C3.58863 14.2558 3.66236 14.3054 3.7436 14.3392C3.82484 14.3731 3.91198 14.3905 3.99999 14.3905C4.088 14.3905 4.17513 14.3731 4.25637 14.3392C4.33761 14.3054 4.41135 14.2558 4.47332 14.1933L7.33332 11.3333H9.99999C10.1768 11.3333 10.3464 11.2631 10.4714 11.1381C10.5964 11.013 10.6667 10.8435 10.6667 10.6666V9.99998H11.3333C11.5101 9.99998 11.6797 9.92974 11.8047 9.80472C11.9298 9.6797 12 9.51013 12 9.33332V8.66665H12.6667C12.8435 8.66665 13.013 8.59641 13.1381 8.47139C13.2631 8.34636 13.3333 8.17679 13.3333 7.99998V7.33332H8.66665V7.99998C8.66665 8.3536 8.52618 8.69274 8.27613 8.94279C8.02608 9.19284 7.68694 9.33332 7.33332 9.33332H5.99999C5.64637 9.33332 5.30723 9.19284 5.05718 8.94279C4.80713 8.69274 4.66665 8.3536 4.66665 7.99998V5.99998L3.33332 7.33332Z" fill="#5344FF"/>
</svg>
