<svg width="17" height="16" viewBox="0 0 17 16" fill="none" xmlns="http://www.w3.org/2000/svg">
<path d="M8.50008 8.33325C7.88124 8.33325 7.28775 8.57908 6.85017 9.01667C6.41258 9.45425 6.16675 10.0477 6.16675 10.6666C6.16675 11.2854 6.41258 11.8789 6.85017 12.3165C7.28775 12.7541 7.88124 12.9999 8.50008 12.9999C9.11892 12.9999 9.71241 12.7541 10.15 12.3165C10.5876 11.8789 10.8334 11.2854 10.8334 10.6666C10.8334 10.0477 10.5876 9.45425 10.15 9.01667C9.71241 8.57908 9.11892 8.33325 8.50008 8.33325ZM7.50008 10.6666C7.50008 10.4014 7.60544 10.147 7.79297 9.95948C7.98051 9.77194 8.23486 9.66659 8.50008 9.66659C8.7653 9.66659 9.01965 9.77194 9.20719 9.95948C9.39472 10.147 9.50008 10.4014 9.50008 10.6666C9.50008 10.9318 9.39472 11.1862 9.20719 11.3737C9.01965 11.5612 8.7653 11.6666 8.50008 11.6666C8.23486 11.6666 7.98051 11.5612 7.79297 11.3737C7.60544 11.1862 7.50008 10.9318 7.50008 10.6666Z" fill="#21CE9A"/>
<path d="M12.184 3.41079L10.0647 0.439453L2.272 6.66479L1.84 6.66012V6.66679H1.5V14.6668H15.5V6.66679H14.8587L13.5827 2.93412L12.184 3.41079ZM13.45 6.66679H6.76467L11.744 4.96945L12.7587 4.64479L13.45 6.66679ZM10.8667 3.86012L5.72667 5.61212L9.79733 2.36012L10.8667 3.86012ZM2.83333 12.1128V9.21945C3.1146 9.11979 3.37007 8.9586 3.58113 8.74766C3.79219 8.53672 3.95351 8.28133 4.05333 8.00012H12.9467C13.0464 8.28143 13.2077 8.53693 13.4188 8.74798C13.6299 8.95904 13.8854 9.12034 14.1667 9.22012V12.1135C13.8854 12.2132 13.6299 12.3745 13.4188 12.5856C13.2077 12.7966 13.0464 13.0521 12.9467 13.3335H4.05467C3.95479 13.0519 3.79331 12.7962 3.58201 12.585C3.37072 12.3738 3.11493 12.2125 2.83333 12.1128Z" fill="#21CE9A"/>
</svg>
